<?xml version="1.0" encoding="utf-8"?>
<!-- Generator: Adobe Illustrator 23.0.1, SVG Export Plug-In . SVG Version: 6.00 Build 0)  -->
<svg version="1.1" id="Layer_1" xmlns="http://www.w3.org/2000/svg" xmlns:xlink="http://www.w3.org/1999/xlink" x="0px" y="0px"
	 viewBox="0 0 382.2 432.3" style="enable-background:new 0 0 382.2 432.3;" xml:space="preserve">
<style type="text/css">
	.st0{fill:#172A3C;}
	.st1{fill:#F0EFEF;}
	.st2{fill:#25ABB9;}
</style>
<g>
	<g>
		<g>
			<path class="st0" d="M346.1,178.6c-0.2,8.2-6.5,14.7-14.3,14.5c-7.7-0.2-13.7-7-13.5-15.2s6.6-14.7,14.2-14.5
				C340.2,163.7,346.3,170.5,346.1,178.6z"/>
		</g>
	</g>
	<g>
		<path class="st0" d="M303.2,178.4c0,22-17.8,39.8-39.8,39.8s-39.8-17.8-39.8-39.8s17.8-39.8,39.8-39.8
			C285.4,138.7,303.2,156.5,303.2,178.4z"/>
	</g>
	<g>
		<path class="st1" d="M287.3,179.7c-2.8,0-5-2.2-5-5c0-8.3-6.8-15.1-15.1-15.1c-2.8,0-5-2.2-5-5s2.2-5,5-5
			c13.9,0,25.1,11.3,25.1,25.1C292.3,177.4,290.1,179.7,287.3,179.7z"/>
	</g>
	<path class="st2" d="M331.7,240.6c-1.4,0-2.7,0.2-3.9,0.6l-2.9,0.5v-0.1c-4.5,0.9-9.1,1.4-13.9,1.3l-50.5-1.2
		c-34.1-0.8-61.2-28.3-60.4-61.6c0.8-33.2,29.1-59.6,63.2-58.8l33.2,0.8c2.3,0.1,4.6,0.2,6.6,0.2c2.5,0.1,4.3,0.1,4.9,0.1
		c0.2,0,0.4,0,0.6-0.1l0,0c2-0.1,4-0.8,5.5-2c0.5-0.4,1-0.8,1.4-1.2c0.1-0.1,0.1-0.1,0.2-0.2c0.3-0.4,0.7-0.8,1-1.3
		c0.1-0.2,0.2-0.4,0.3-0.6c0.2-0.4,0.4-0.8,0.6-1.2c0.1-0.3,0.2-0.7,0.3-1c0.1-0.3,0.2-0.6,0.3-0.9c0.1-0.7,0.2-1.4,0.2-2.1
		c0-2.9-1.2-5.5-3-7.4c0.1,0,0.1,0,0.2,0C288.1,73.3,248,53.7,203.3,53.7c-82.8,0-149.9,67.1-149.9,149.9
		c0,56.9,31.7,106.4,78.5,131.8v58.8c0,11.1,9,20.1,20.1,20.1h21.7c11.1,0,20.1-9,20.1-20.1s-9-20.1-20.1-20.1h-1.5v-23.7
		c10.1,2.1,20.5,3.3,31.2,3.3c0.4,0,0.9,0,1.3,0v58.5c0,11.1,9,20.1,20.1,20.1h28.8c11.1,0,20.1-9,20.1-20.1s-9-20.1-20.1-20.1h-8.7
		v-44.3c44.9-12.9,81.1-46.3,98-89.4c0.8-1.7,1.3-3.5,1.3-5.5C344,246.1,338.5,240.6,331.7,240.6z"/>
	<g>
		<path class="st0" d="M147,29.7C147,29.7,147.1,29.7,147,29.7C147.1,29.7,147,29.7,147,29.7z"/>
		<path class="st0" d="M146.8,29.9L146.8,29.9c0.1,0,0.1-0.1,0.2-0.1C146.9,29.8,146.8,29.9,146.8,29.9z"/>
	</g>
	<path class="st0" d="M375.3,250.2c-5.3-1.7-11,1.1-12.7,6.4c-2.9,8.9-6.7,17.7-11.1,26c-1.3,2.4-1.5,5.2-0.7,7.8
		c1.6,5.1,4.7,14.7,4.1,20.1l0,0l0,0c0,0.4-0.2,2-2,4.5c-0.1,0.1-0.2,0.2-0.3,0.3c-19.4,25.9-45.2,46.3-74.7,59.1
		c-5.1,2.2-7.4,8.1-5.2,13.2c1.6,3.8,5.3,6.1,9.2,6.1c1.3,0,2.7-0.3,4-0.8c32.2-13.9,60.4-36,81.8-64c3-4.2,4.4-6.6,4.6-7.1
		c5.2-10.3,2.1-23.1-1.1-33.5c4.1-8.2,7.6-16.8,10.5-25.4C383.4,257.6,380.6,251.9,375.3,250.2z"/>
	<path class="st0" d="M338.5,75.4c-14-14.5-30.1-26.5-47.9-35.7c-3.1-9-6.9-17.7-13-23.5c0,0,0,0,0-0.1c-1.9-2.1-4.1-3.6-5.7-4.5
		c-0.5-0.3-1-0.6-1.6-0.8c-0.2-0.1-0.3-0.1-0.3-0.1l0,0c-0.2-0.1-0.3-0.1-0.5-0.2c-41.2-13.7-85.9-14-127.6-0.5
		c-0.3,0.1-0.6,0.2-0.9,0.3l0,0c-1.9,0.8-3.6,1.8-3.6,1.8l0,0c-9.9,5.5-14.8,17.4-18.3,27.5c-16.5,8.6-31.6,19.6-44.9,32.7
		c-10.3,0.2-22.6,1.1-30.9,8l0,0c-2.5,1.9-6,6.8-6,6.8l0,0c-0.2,0.2-0.3,0.4-0.4,0.6C13,121.9,0.3,161.9,0,203.5c0,0.1,0,0.3,0,0.4
		l0,0c0,0,0.2,4.1,1,6.6l0,0c2.7,10.7,12.3,18.9,20.3,24.9c3,18.4,8.8,36.1,17.2,52.8c-3.1,10.2-6.1,22.6-1.4,32.8v0.1
		c1.2,3,3.2,5.5,3.2,5.5l0,0c17.7,23.9,40.9,43.9,66.9,58.1c1.5,0.8,3.2,1.2,4.8,1.2c3.6,0,7-1.9,8.8-5.3c2.7-4.9,0.8-11-4-13.6
		c-22.7-12.3-42.9-29.6-58.6-50.1c-0.1-0.1-0.2-0.2-0.2-0.3c-0.1-0.2-0.3-0.4-0.4-0.6c-0.7-1.1-1.6-2.5-2-3.2
		c-0.1-0.1-0.1-0.2-0.2-0.3v-0.1c-2-4.4,1.8-16.3,3.7-22.2c0.8-2.6,0.6-5.4-0.7-7.8c-9-17-15-35.2-17.7-54.2c-0.4-2.7-1.8-5.1-4-6.7
		c-4.4-3.2-12.8-9.4-15.4-14.3l0,0c-1.4-2.1-1-6-1-6l0,0c0.6-35.7,11.5-70.2,31.6-99.9l0,0c0,0,1.9-3.6,4.3-5.6
		c0.4-0.4,0.8-0.7,1.3-1l0,0l0,0c4.7-2.5,15.5-2.5,21.1-2.6c2.7,0,5.3-1.1,7.2-3.1c13.4-13.8,28.9-25.2,46.1-33.6
		c2.4-1.2,4.3-3.3,5.1-5.9c1.9-5.7,5.7-17.1,9.9-20l0,0c0,0,0.1,0,0.2-0.1c0,0,0.1,0,0.1-0.1c0.5-0.3,1.7-0.9,3.2-1.3l0,0
		c36.1-11.2,74.5-11,110.1,0.2l0,0c0.5,0.2,2.6,0.9,4.2,3l0.1,0.1l0,0c3.5,4.4,6.5,13.3,8.1,18.1c0.8,2.6,2.7,4.7,5.1,5.9
		c17.2,8.4,32.7,19.7,46.1,33.6c3.9,4,10.2,4.1,14.2,0.2C342.3,85.7,342.4,79.3,338.5,75.4z"/>
</g>
</svg>
